<svg xmlns="http://www.w3.org/2000/svg" viewBox="0 0 128 128" width="128" height="128" role="img" aria-label="Lebensmittel Platzhalter">
  <rect width="128" height="128" fill="#f0f4f0"/>
  <circle cx="64" cy="64" r="46" fill="#e8f5e9" stroke="#81c784" stroke-width="3"/>
  <path d="M64 28c-8 0-14 6-14 14 0 4 2 8 4 11-6 3-10 9-10 16 0 10 8 18 20 18s20-8 20-18c0-7-4-13-10-16 2-3 4-7 4-11 0-8-6-14-14-14z" fill="#66bb6a"/>
  <path d="M64 28c-3-6-10-8-14-4 2 6 7 10 14 10" fill="#43a047"/>
  <ellipse cx="58" cy="52" rx="4" ry="6" fill="#a5d6a7" opacity="0.7"/>
</svg>
